<svg width="200" height="200" viewBox="0 0 200 200" fill="none" xmlns="http://www.w3.org/2000/svg" data-fg-ejao0="1.11:1.4808:/src/app/components/CompassLogo.tsx:8:5:218:1920:e:svg:xtetxtetxtetetetetxtetxtetxte"><circle cx="100" cy="100" r="90" stroke="url(#gradient1)" stroke-width="2" data-fg-ejao2="1.11:1.4808:/src/app/components/CompassLogo.tsx:16:7:386:76:e:circle"/><circle cx="100" cy="100" r="70" stroke="url(#gradient2)" stroke-width="1.5" data-fg-ejao4="1.11:1.4808:/src/app/components/CompassLogo.tsx:19:7:501:78:e:circle"/><path d="M100 20 L110 50 L100 45 L90 50 Z" fill="url(#gradient1)" data-fg-ejao6="1.11:1.4808:/src/app/components/CompassLogo.tsx:22:7:671:90:e:path"/><path d="M180 100 L150 110 L155 100 L150 90 Z" fill="url(#gradient2)" data-fg-ejao7="1.11:1.4808:/src/app/components/CompassLogo.tsx:26:7:768:94:e:path"/><path d="M100 180 L90 150 L100 155 L110 150 Z" fill="url(#gradient1)" data-fg-ejao8="1.11:1.4808:/src/app/components/CompassLogo.tsx:30:7:869:94:e:path"/><path d="M20 100 L50 90 L45 100 L50 110 Z" fill="url(#gradient2)" data-fg-ejao9="1.11:1.4808:/src/app/components/CompassLogo.tsx:34:7:970:90:e:path"/><path d="M100 60 L106 88 L120 80 L108 98 L130 100 L108 102 L120 120 L106 112 L100 140 L94 112 L80 120 L92 102 L70 100 L92 98 L80 80 L94 88 Z" fill="url(#gradient3)" data-fg-ejao11="1.11:1.4808:/src/app/components/CompassLogo.tsx:40:7:1110:189:e:path"/><circle cx="100" cy="100" r="12" fill="url(#gradient1)" data-fg-ejao13="1.11:1.4808:/src/app/components/CompassLogo.tsx:46:7:1341:58:e:circle"/><defs data-fg-ejao15="1.11:1.4808:/src/app/components/CompassLogo.tsx:49:7:1437:690:e:defs:etete"><linearGradient id="gradient1" x1="0%" y1="0%" x2="100%" y2="100%" data-fg-ejao16="1.11:1.4808:/src/app/components/CompassLogo.tsx:50:9:1452:197:e:linearGradient:ete"><stop offset="0%" stop-color="#10b981" data-fg-ejao17="1.11:1.4808:/src/app/components/CompassLogo.tsx:51:11:1530:40:e:stop"/><stop offset="100%" stop-color="#059669" data-fg-ejao18="1.11:1.4808:/src/app/components/CompassLogo.tsx:52:11:1581:42:e:stop"/></linearGradient><linearGradient id="gradient2" x1="100%" y1="0%" x2="0%" y2="100%" data-fg-ejao19="1.11:1.4808:/src/app/components/CompassLogo.tsx:54:9:1658:197:e:linearGradient:ete"><stop offset="0%" stop-color="#34d399" data-fg-ejao20="1.11:1.4808:/src/app/components/CompassLogo.tsx:55:11:1736:40:e:stop"/><stop offset="100%" stop-color="#10b981" data-fg-ejao21="1.11:1.4808:/src/app/components/CompassLogo.tsx:56:11:1787:42:e:stop"/></linearGradient><linearGradient id="gradient3" x1="50%" y1="0%" x2="50%" y2="100%" data-fg-ejao22="1.11:1.4808:/src/app/components/CompassLogo.tsx:58:9:1864:249:e:linearGradient:etete"><stop offset="0%" stop-color="#6ee7b7" data-fg-ejao23="1.11:1.4808:/src/app/components/CompassLogo.tsx:59:11:1942:40:e:stop"/><stop offset="50%" stop-color="#10b981" data-fg-ejao24="1.11:1.4808:/src/app/components/CompassLogo.tsx:60:11:1993:41:e:stop"/><stop offset="100%" stop-color="#059669" data-fg-ejao25="1.11:1.4808:/src/app/components/CompassLogo.tsx:61:11:2045:42:e:stop"/></linearGradient></defs></svg>